<svg width="40" height="40" viewBox="0 0 40 40" fill="none" xmlns="http://www.w3.org/2000/svg">
<g id="bell">
<path id="Vector" d="M20.0001 40C22.7594 40 24.9977 37.7617 24.9977 35H15.0024C15.0024 37.7617 17.2407 40 20.0001 40ZM36.8274 28.3039C35.318 26.682 32.4938 24.2422 32.4938 16.25C32.4938 10.1797 28.2376 5.32031 22.4985 4.12813V2.5C22.4985 1.11953 21.3797 0 20.0001 0C18.6204 0 17.5016 1.11953 17.5016 2.5V4.12813C11.7626 5.32031 7.5063 10.1797 7.5063 16.25C7.5063 24.2422 4.68209 26.682 3.17271 28.3039C2.70396 28.8078 2.49615 29.4102 2.50005 30C2.50865 31.2812 3.51412 32.5 5.00787 32.5H34.9922C36.486 32.5 37.4922 31.2812 37.5001 30C37.504 29.4102 37.2962 28.807 36.8274 28.3039Z" fill="#F4B72C"/>
</g>
</svg>
