<svg width="26" height="15" viewBox="0 0 26 15" fill="none" xmlns="http://www.w3.org/2000/svg">
<path d="M24.81 3.48447L13.9139 0.136816C13.3201 -0.0456055 12.6795 -0.0456055 12.0861 0.136816L1.18965 3.48447C0.270117 3.76689 0.270117 4.98291 1.18965 5.26533L3.08926 5.84893C2.67246 6.36416 2.41621 6.99268 2.39082 7.68096C2.01465 7.89658 1.7498 8.28564 1.7498 8.7501C1.7498 9.17119 1.97168 9.52549 2.29121 9.75205L1.29395 14.2396C1.20723 14.6298 1.5041 15.0001 1.90371 15.0001H4.09551C4.49551 15.0001 4.79238 14.6298 4.70566 14.2396L3.7084 9.75205C4.02793 9.52549 4.2498 9.17119 4.2498 8.7501C4.2498 8.29814 3.99707 7.92002 3.63809 7.70049C3.66777 7.11377 3.96777 6.59502 4.44629 6.26611L12.0857 8.61338C12.4396 8.72197 13.1186 8.85752 13.9135 8.61338L24.81 5.26572C25.7299 4.98291 25.7299 3.76729 24.81 3.48447ZM14.2807 9.8083C13.1662 10.1505 12.2166 9.96143 11.7186 9.8083L6.05371 8.06807L5.4998 12.5001C5.4998 13.881 8.85762 15.0001 12.9998 15.0001C17.142 15.0001 20.4998 13.881 20.4998 12.5001L19.9459 8.06768L14.2807 9.8083Z" fill="black"/>
</svg>
