<svg width="40" height="40" viewBox="0 0 40 40" fill="none" xmlns="http://www.w3.org/2000/svg">
<g id="file-alt">
<path id="Vector" d="M22.5 10.625V0H6.875C5.83594 0 5 0.835938 5 1.875V38.125C5 39.1641 5.83594 40 6.875 40H33.125C34.1641 40 35 39.1641 35 38.125V12.5H24.375C23.3438 12.5 22.5 11.6562 22.5 10.625ZM27.5 29.0625C27.5 29.5781 27.0781 30 26.5625 30H13.4375C12.9219 30 12.5 29.5781 12.5 29.0625V28.4375C12.5 27.9219 12.9219 27.5 13.4375 27.5H26.5625C27.0781 27.5 27.5 27.9219 27.5 28.4375V29.0625ZM27.5 24.0625C27.5 24.5781 27.0781 25 26.5625 25H13.4375C12.9219 25 12.5 24.5781 12.5 24.0625V23.4375C12.5 22.9219 12.9219 22.5 13.4375 22.5H26.5625C27.0781 22.5 27.5 22.9219 27.5 23.4375V24.0625ZM27.5 18.4375V19.0625C27.5 19.5781 27.0781 20 26.5625 20H13.4375C12.9219 20 12.5 19.5781 12.5 19.0625V18.4375C12.5 17.9219 12.9219 17.5 13.4375 17.5H26.5625C27.0781 17.5 27.5 17.9219 27.5 18.4375ZM35 9.52344V10H25V0H25.4766C25.9766 0 26.4531 0.195312 26.8047 0.546875L34.4531 8.20312C34.8047 8.55469 35 9.03125 35 9.52344Z" fill="#3A7B4B"/>
</g>
</svg>
