<svg width="26" height="25" viewBox="0 0 26 25" fill="none" xmlns="http://www.w3.org/2000/svg">
<path d="M24.9932 4.49756L13.5488 0.0996079C13.1952 -0.0332026 12.8053 -0.0332026 12.4517 0.0996079L1.00684 4.49756C0.85796 4.55342 0.729671 4.65337 0.639106 4.78407C0.548541 4.91477 0.500012 5.06999 0.5 5.229V7.03125C0.5 7.46289 0.849609 7.8125 1.28125 7.8125H24.7188C25.1504 7.8125 25.5 7.46289 25.5 7.03125V5.229C25.5 4.90332 25.2979 4.61181 24.9932 4.49756ZM3.625 9.375V17.1875H2.84375C2.41211 17.1875 2.0625 17.5371 2.0625 17.9687V20.3125H23.9375V17.9687C23.9375 17.5371 23.5879 17.1875 23.1562 17.1875H22.375V9.375H19.25V17.1875H14.5625V9.375H11.4375V17.1875H6.75V9.375H3.625ZM24.7188 21.875H1.28125C0.849609 21.875 0.5 22.2246 0.5 22.6562V24.2187C0.5 24.6504 0.849609 25 1.28125 25H24.7188C25.1504 25 25.5 24.6504 25.5 24.2187V22.6562C25.5 22.2246 25.1504 21.875 24.7188 21.875Z" fill="black"/>
</svg>
