<svg width="26" height="22" viewBox="0 0 26 22" fill="none" xmlns="http://www.w3.org/2000/svg">
<path d="M6.75 21.875H19.25V2.34375C19.25 1.0498 18.2002 0 16.9062 0H9.09375C7.7998 0 6.75 1.0498 6.75 2.34375V21.875ZM9.875 3.125H16.125V4.6875H9.875V3.125ZM25.5 7.03125V19.5312C25.5 20.8252 24.4502 21.875 23.1562 21.875H20.8125V4.6875H23.1562C24.4502 4.6875 25.5 5.7373 25.5 7.03125ZM5.1875 21.875H2.84375C1.5498 21.875 0.5 20.8252 0.5 19.5312V7.03125C0.5 5.7373 1.5498 4.6875 2.84375 4.6875H5.1875V21.875Z" fill="black"/>
</svg>
